# xmcd CD database file
#
# Track frame offsets:
#	182
#	27555
#	62030
#	73600
#	93977
#	102680
#	119435
#	129180
#	136037
#	162592
#	179705
#
# Disc length: 2717 seconds
#
# Revision: 0
# Processed by: cddbd v1.4PL0 Copyright (c) Steve Scherf et al.
# Submitted via: CDex 1.50Beta7
#
DISCID=a10a9b0b
DTITLE=Greetje Bijma - Barefoot
DYEAR=1993
DGENRE=Jazz
TTITLE0=Barefoot
TTITLE1=Bosnia
TTITLE2=Painter At Work
TTITLE3=As I Drive By
TTITLE4=Glazed Frost
TTITLE5=Lonely Walk
TTITLE6=Katsjima
TTITLE7=Sings With Strings
TTITLE8=Duck Pond
TTITLE9=Guess Where It's Coming From
TTITLE10=Vortex
EXTD=YEAR: 1993
EXTT0=
EXTT1=
EXTT2=
EXTT3=
EXTT4=
EXTT5=
EXTT6=
EXTT7=
EXTT8=
EXTT9=
EXTT10=
PLAYORDER=
